#!OML:ASF H:\Pregnant\Project 1\Capture day 1\Session 1\femalepreg.ASF
:FULLY-SPECIFIED
:DEGREES
1199
root 0.37563 7.58487 19.8518 57.0335 -34.5808 359.781
lowerback 18.4996 0.934351 -1.47882
upperback -0.883713 1.08993 1.6935
thorax -11.4737 0.656912 2.40955
lowerneck -59.3548 4.59414 0.837086
upperneck 1.18552 4.0925 0.49107
head 6.99644 1.68876 0.758969
rclavicle -6.63941e-014 -2.62396e-014
rhumerus 25.2159 52.6928 -63.577
rradius 30.5957
rwrist 15.6834
rhand -51.8717 339.811
rfingers 7.12502
rthumb -24.3845 671.343
lclavicle -6.63941e-014 -2.62396e-014
lhumerus 29.4956 -42.6848 66.9727
lradius 27.3432
lwrist 12.7297
lhand -44.2597 -408.294
lfingers 7.12502
lthumb -17.0712 -379.025
rfemur -161.5 -12.8272 43.6057
rtibia 138.816
rfoot -23.7664 15.0347
rtoes -0.974254
lfemur 201.907 10.9679 316.521
ltibia 136.1
lfoot -22.6426 -18.4584
ltoes 0.351826
1200
root 0.380874 7.63267 19.8274 57.0078 -34.6228 359.607
lowerback 18.7175 1.00647 -1.44313
upperback -0.98411 1.19402 1.70481
thorax -11.7181 0.707143 2.37221
lowerneck -59.2556 4.53425 0.780495
upperneck 0.993236 4.0546 0.507312
head 6.91829 1.67146 0.763562
rclavicle 5.1684e-015 7.95139e-015
rhumerus 25.4428 52.5331 -63.7324
rradius 30.0268
rwrist 15.6926
rhand -51.491 340.449
rfingers 7.12502
rthumb -24.0195 671.932
lclavicle 5.1684e-015 7.95139e-015
lhumerus 29.7496 -42.9151 66.5346
lradius 27.4253
lwrist 13.0875
lhand -44.0786 -406.735
lfingers 7.12502
lthumb -16.8968 -377.45
rfemur -160.571 -12.5138 43.338
rtibia 138.254
rfoot -24.0708 14.7974
rtoes 0.268326
lfemur 202.491 11.1589 316.571
ltibia 135.555
lfoot -22.9539 -18.3795
ltoes 1.5301
1201
root 0.386399 7.68042 19.8025 56.9382 -34.6647 359.426
lowerback 18.941 1.07975 -1.40073
upperback -1.0736 1.30052 1.70989
thorax -11.9537 0.757258 2.32257
lowerneck -59.1331 4.47091 0.734971
upperneck 0.79378 4.00654 0.519411
head 6.83704 1.64903 0.763145
rclavicle 3.53837e-014 -8.15017e-014
rhumerus 25.6421 52.3367 -63.9315
rradius 29.4541
rwrist 15.8181
rhand -51.0178 340.995
rfingers 7.12502
rthumb -23.5657 672.419
lclavicle 3.53837e-014 -8.15017e-014
lhumerus 29.984 -43.1127 66.0986
lradius 27.5406
lwrist 13.4183
lhand -43.829 -404.978
lfingers 7.12502
lthumb -16.6565 -375.673
rfemur -159.618 -12.2245 43.0935
rtibia 137.701
rfoot -24.3666 14.6019
rtoes 1.56505
lfemur 203.112 11.3876 316.62
ltibia 135.013
lfoot -23.285 -18.3214
ltoes 2.63991
1202
root 0.392266 7.72829 19.777 56.8278 -34.7062 359.243
lowerback 19.1647 1.15436 -1.35296
upperback -1.15333 1.40958 1.71025
thorax -12.1786 0.807435 2.26299
lowerneck -58.9899 4.40412 0.698355
upperneck 0.589228 3.95019 0.525066
head 6.75364 1.62195 0.757446
rclavicle 7.55382e-015 2.54444e-014
rhumerus 25.816 52.1045 -64.1603
rradius 28.8884
rwrist 16.0782
rhand -50.4497 341.429
rfingers 7.12502
rthumb -23.0207 672.784
lclavicle 7.55382e-015 2.54444e-014
lhumerus 30.203 -43.2702 65.6739
lradius 27.6849
lwrist 13.7243
lhand -43.4956 -403.003
lfingers 7.12502
lthumb -16.3356 -373.671
rfemur -158.645 -11.9592 42.8703
rtibia 137.153
rfoot -24.6518 14.4424
rtoes 2.89898
lfemur 203.772 11.6458 316.672
ltibia 134.47
lfoot -23.6325 -18.2766
ltoes 3.66874
1203
root 0.398492 7.77638 19.7512 56.6805 -34.7477 359.061
lowerback 19.3831 1.23068 -1.30214
upperback -1.22504 1.52152 1.7078
thorax -12.3914 0.858046 2.19685
lowerneck -58.829 4.33399 0.667711
upperneck 0.382484 3.88799 0.522136
head 6.66928 1.591 0.74647
rclavicle -3.1408e-014 6.50026e-014
rhumerus 25.9713 51.8419 -64.3986
rradius 28.3424
rwrist 16.4803
rhand -49.7816 341.745
rfingers 7.12502
rthumb -22.3795 673.021
lclavicle -3.1408e-014 6.50026e-014
lhumerus 30.411 -43.3798 65.2709
lradius 27.8529
lwrist 14.0098
lhand -43.0633 -400.799
lfingers 7.12502
lthumb -15.9193 -371.434
rfemur -157.659 -11.7165 42.665
rtibia 136.612
rfoot -24.9254 14.3114
rtoes 4.24139
lfemur 204.465 11.9256 316.735
ltibia 133.925
lfoot -23.9905 -18.2382
ltoes 4.60887
1204
root 0.405051 7.82473 19.7251 56.5015 -34.7901 358.882
lowerback 19.5908 1.30912 -1.25107
upperback -1.29091 1.6365 1.70443
thorax -12.5916 0.909474 2.12783
lowerneck -58.653 4.26078 0.639853
upperneck 0.176849 3.82264 0.509327
head 6.58529 1.55728 0.730653
rclavicle 2.18663e-014 -2.42517e-014
rhumerus 26.1198 51.5588 -64.621
rradius 27.8299
rwrist 17.0185
rhand -49.0029 341.949
rfingers 7.12502
rthumb -21.6318 673.137
lclavicle 2.18663e-014 -2.42517e-014
lhumerus 30.6114 -43.4328 64.9002
lradius 28.0389
lwrist 14.28
lhand -42.5163 -398.366
lfingers 7.12502
lthumb -15.3925 -368.959
rfemur -156.665 -11.4937 42.4737
rtibia 136.074
rfoot -25.1869 14.1997
rtoes 5.55273
lfemur 205.187 12.2199 316.808
ltibia 133.381
lfoot -24.3526 -18.1996
ltoes 5.45626
1205
root 0.411883 7.87334 19.699 56.2968 -34.8345 358.708
lowerback 19.7822 1.39015 -1.20255
upperback -1.35377 1.75473 1.70144
thorax -12.7794 0.962132 2.05906
lowerneck -58.4625 4.18471 0.612198
upperneck -0.0250541 3.7563 0.485674
head 6.50265 1.52169 0.71038
rclavicle -3.1408e-014 6.32135e-014
rhumerus 26.2764 51.2682 -64.8003
rradius 27.3636
rwrist 17.6748
rhand -48.0944 342.05
rfingers 7.12502
rthumb -20.7591 673.14
lclavicle -3.1408e-014 6.32135e-014
lhumerus 30.806 -43.4203 64.5733
lradius 28.2374
lwrist 14.5402
lhand -41.8394 -395.713
lfingers 7.12502
lthumb -14.7405 -366.257
rfemur -155.671 -11.2874 42.2915
rtibia 135.539
rfoot -25.4364 14.0973
rtoes 6.78617
lfemur 205.928 12.5222 316.895
ltibia 132.838
lfoot -24.7101 -18.1564
ltoes 6.21362
1206
root 0.418916 7.92217 19.6729 56.0729 -34.8824 358.542
lowerback 19.9522 1.47404 -1.15912
upperback -1.41688 1.87612 1.69944
thorax -12.9555 1.01628 1.99276
lowerneck -58.2575 4.10604 0.583192
upperneck -0.220221 3.69048 0.45075
head 6.42244 1.48499 0.686006
rclavicle -1.63003e-014 1.90833e-014
rhumerus 26.4574 50.9847 -64.9109
rradius 26.9538
rwrist 18.4196
rhand -47.0284 342.055
rfingers 7.12502
rthumb -19.7346 673.037
lclavicle -1.63003e-014 1.90833e-014
lhumerus 30.9948 -43.3342 64.3011
lradius 28.4439
lwrist 14.7963
lhand -41.0172 -392.855
lfingers 7.12502
lthumb -13.9482 -363.343
rfemur -154.683 -11.0932 42.1134
rtibia 135.005
rfoot -25.6745 13.9932
rtoes 7.89301
lfemur 206.68 12.8264 316.993
ltibia 132.298
lfoot -25.0537 -18.1064
ltoes 6.89108
1207
root 0.426078 7.97121 19.6469 55.8356 -34.9348 358.385
lowerback 20.0959 1.56055 -1.12317
upperback -1.48367 1.99985 1.69857
thorax -13.1211 1.07184 1.93089
lowerneck -58.0367 4.02564 0.552707
upperneck -0.405576 3.62645 0.404171
head 6.34575 1.4478 0.657668
rclavicle -1.66979e-014 1.90833e-014
rhumerus 26.6797 50.7233 -64.9313
rradius 26.6059
rwrist 19.2128
rhand -45.7701 341.964
rfingers 7.12502
rthumb -18.5245 672.826
lclavicle -1.66979e-014 1.90833e-014
lhumerus 31.1738 -43.1651 64.0964
lradius 28.6536
lwrist 15.0528
lhand -40.0338 -389.816
lfingers 7.12502
lthumb -13.0004 -360.241
rfemur -153.708 -10.9073 41.9346
rtibia 134.471
rfoot -25.903 13.8761
rtoes 8.82687
lfemur 207.436 13.1265 317.105
ltibia 131.764
lfoot -25.3741 -18.0501
ltoes 7.5067
1208
root 0.433305 8.02042 19.6212 55.5893 -34.9925 358.24
lowerback 20.2103 1.64894 -1.09682
upperback -1.55722 2.12445 1.69862
thorax -13.2782 1.12839 1.87501
lowerneck -57.7986 3.94424 0.520946
upperneck -0.577946 3.56485 0.34679
head 6.27366 1.4107 0.625854
rclavicle -1.74931e-014 -1.25831e-013
rhumerus 26.9578 50.4955 -64.8481
rradius 26.3198
rwrist 20.0052
rhand -44.2822 341.773
rfingers 7.12502
rthumb -17.0928 672.505
lclavicle -1.74931e-014 -1.25831e-013
lhumerus 31.3381 -42.9058 63.9703
lradius 28.8623
lwrist 15.3192
lhand -38.8745 -386.625
lfingers 7.12502
lthumb -11.8827 -356.982
rfemur -152.75 -10.7264 41.751
rtibia 133.935
rfoot -26.1246 13.7334
rtoes 9.54504
lfemur 208.191 13.4173 317.228
ltibia 131.235
lfoot -25.6645 -17.9893
ltoes 8.07689
1209
root 0.440551 8.06985 19.5956 55.336 -35.0561 358.109
lowerback 20.2949 1.73793 -1.08234
upperback -1.6398 2.24769 1.69956
thorax -13.429 1.18518 1.82722
lowerneck -57.5421 3.86301 0.488781
upperneck -0.733899 3.5064 0.279838
head 6.20734 1.37429 0.591116
rclavicle -3.06128e-014 -2.24627e-014
rhumerus 27.3026 50.3079 -64.658
rradius 26.0892
rwrist 20.7409
rhand -42.5318 341.483
rfingers 7.12502
rthumb -15.4074 672.077
lclavicle -3.06128e-014 -2.24627e-014
lhumerus 31.4813 -42.5521 63.9313
lradius 29.0648
lwrist 15.6114
lhand -37.5292 -383.324
lfingers 7.12502
lthumb -10.5852 -353.611
rfemur -151.811 -10.5483 41.5596
rtibia 133.396
rfoot -26.343 13.5528
rtoes 10.0153
lfemur 208.945 13.6951 317.364
ltibia 130.71
lfoot -25.9227 -17.9249
ltoes 8.60754
1210
root 0.447787 8.11963 19.5703 55.0751 -35.126 357.994
lowerback 20.3518 1.82581 -1.08181
upperback -1.73248 2.36678 1.70136
thorax -13.5761 1.2412 1.78965
lowerneck -57.2675 3.78353 0.457573
upperneck -0.869822 3.45177 0.205218
head 6.14805 1.33923 0.554199
rclavicle 1.82882e-014 1.82882e-014
rhumerus 27.7197 50.1597 -64.3691
rradius 25.9024
rwrist 21.3607
rhand -40.4976 341.097
rfingers 7.12502
rthumb -13.4474 671.551
lclavicle 1.82882e-014 1.82882e-014
lhumerus 31.5988 -42.1064 63.9807
lradius 29.2552
lwrist 15.9593
lhand -35.9986 -379.978
lfingers 7.12502
lthumb -9.10841 -350.195
rfemur -150.89 -10.3723 41.3585
rtibia 132.851
rfoot -26.5626 13.3227
rtoes 10.2157
lfemur 209.702 13.9578 317.514
ltibia 130.187
lfoot -26.1529 -17.8554
ltoes 9.08766
1211
root 0.454993 8.16996 19.5453 54.8037 -35.2023 357.896
lowerback 20.3859 1.91081 -1.09706
upperback -1.835 2.47882 1.70398
thorax -13.7222 1.29531 1.76425
lowerneck -56.9766 3.70728 0.428636
upperneck -0.982347 3.4014 0.125612
head 6.09701 1.30615 0.516113
rclavicle -1.74931e-014 4.05521e-014
rhumerus 28.2048 50.0397 -64.0037
rradius 25.7454
rwrist 21.8115
rhand -38.174 340.631
rfingers 7.12502
rthumb -11.207 670.951
lclavicle -1.74931e-014 4.05521e-014
lhumerus 31.6885 -41.5802 64.1106
lradius 29.4269
lwrist 16.4055
lhand -34.3028 -376.678
lfingers 7.12502
lthumb -7.47182 -346.83
rfemur -149.98 -10.1991 41.1467
rtibia 132.299
rfoot -26.7871 13.0358
rtoes 10.1447
lfemur 210.469 14.2054 317.679
ltibia 129.665
lfoot -26.3657 -17.7753
ltoes 9.48554
